# xmcd CD database file
#
# Track frame offsets:
#	150
#	29721
#	62301
#	97987
#	132290
#	163372
#	195307
#	201255
#	230851
#	262528
#	303758
#	356290
#
# Disc length: 5083 seconds
#
# Revision: 0
# Processed by: cddbd v1.5.2PL0 Copyright (c) Steve Scherf et al.
# Submitted via: CDex 1.70beta2
#
DISCID=9e13d90c
DTITLE=Cory Henry - 2016 The Revival b2
DYEAR=2016
DGENRE=Jazz
TTITLE0=Lord's Prayer
TTITLE1=He Has Made Me Glad
TTITLE2=Precious Lord
TTITLE3=Old Rugged Cross
TTITLE4=NaaNaaNaa
TTITLE5=That Is Why I'm Happy
TTITLE6=If You're Happy
TTITLE7=Giant Steps
TTITLE8=All Is Fair in Love
TTITLE9=esterday
TTITLE10=Want to Be Ready
TTITLE11=I'm A Soldier
EXTD=YEAR: 2016
EXTT0=
EXTT1=
EXTT2=
EXTT3=
EXTT4=
EXTT5=
EXTT6=
EXTT7=
EXTT8=
EXTT9=
EXTT10=
EXTT11=
PLAYORDER=
